<svg width="113" height="148" viewBox="0 0 113 148" fill="none" xmlns="http://www.w3.org/2000/svg">
<path d="M112.396 118.958V148H83.4463V118.958H112.396Z" fill="#19224C"/>
<path d="M32.3331 0C52.6261 0 63.1073 13.4003 74.5147 13.4003C81.8414 13.4003 83.4462 8.93656 83.4462 0H112.441C112.441 13.4003 108.645 42.4418 80.0991 42.4418C59.8061 42.4418 49.3341 29.0324 37.9176 29.0324C30.5816 29.0324 29.0044 33.5052 29.0044 42.4418H0C0 29.0323 3.79634 0 32.3331 0ZM32.3331 53.601C52.6261 53.601 63.1073 67.0013 74.5147 67.0013C81.8506 67.0013 83.437 62.5376 83.437 53.601H112.432C112.432 67.0013 108.636 96.0428 80.09 96.0428C59.797 96.0428 49.3249 82.6425 37.9084 82.6425C30.5725 82.6425 28.9952 87.1062 28.9952 96.0428H0C0 82.6609 3.79634 53.601 32.3331 53.601Z" fill="#19224C"/>
</svg>
